<svg width="18" height="18" viewBox="0 0 18 18" fill="none" xmlns="http://www.w3.org/2000/svg">
<path d="M9 0C4.02545 0 0 4.02545 0 9C0 13.9745 4.02545 18 9 18C13.9745 18 18 13.9745 18 9C18 4.02545 13.9745 0 9 0ZM13.68 7.01182L8.77091 12.1255C8.61545 12.2891 8.39455 12.3709 8.18182 12.3709C8.00182 12.3709 7.81364 12.3136 7.66636 12.1909L4.39364 9.53182C4.04182 9.24545 3.99273 8.73 4.27091 8.37818C4.55727 8.03454 5.07273 7.97727 5.42455 8.26364L8.11636 10.4482L12.5018 5.87455C12.8127 5.55545 13.3364 5.54727 13.6555 5.85C13.9827 6.16091 13.9909 6.68455 13.68 7.01182Z" fill="#2C96FF"/>
</svg>