<svg xmlns="http://www.w3.org/2000/svg" width="48" height="16" fill="none"><style>.B{fill-rule:evenodd}.C{fill:#00579f}</style><path d="M19.3.3 17 15.8h3.9L23.2.3h-3.9z" class="B C"/><mask id="A" maskUnits="userSpaceOnUse" x="23" y="0" width="12" height="16"><path d="M23.2 0H35v16H23.2V0z" fill="#fff" class="B"/></mask><g mask="url(#A)" class="B C"><path d="M34.9.7c-.8-.4-2-.7-3.5-.7-3.8 0-6.5 2.1-6.6 5.1 0 2.2 2 3.5 3.4 4.2 1.6.8 2 1.3 2 2 0 1-1.1 1.5-2.3 1.5-1.5 0-2.3-.3-3.6-.9l-.5-.2-.6 3.5c1 .4 2.6.8 4.4.8 4 0 6.7-2 6.7-5.3 0-1.8-1-3.1-3.2-4.2-1.4-.7-2.2-1.2-2.2-2 0-.6.7-1.3 2.2-1.3a6.7 6.7 0 0 1 3 .6l.3.2.5-3.3z"/></g><mask id="B" maskUnits="userSpaceOnUse" x="34" y="0" width="14" height="16"><path d="M34 .3h14v15.5H34V.3z" fill="#fff" class="B"/></mask><g mask="url(#B)" class="B C"><path d="m40 10.3 1.6-4.4.5-1.4.3 1.3.9 4.5H40zM45 .3h-3c-1 0-1.7.3-2 1.3L34 15.8h4.1l.8-2.4h5l.5 2.4H48L44.9.3z"/></g><path d="M13.7.3 9.8 10.9l-.4-2.2c-.7-2.5-2.9-5.2-5.3-6.5l3.4 13.6h4.1L17.8.3h-4.2z" class="B C"/><mask id="C" maskUnits="userSpaceOnUse" x="0" y="0" width="10" height="9"><path d="M0 .3h9.4v8.4H0V.3z" fill="#fff" class="B"/></mask><g mask="url(#C)" class="B"><path d="M6.3.3H0v.3C4.9 1.9 8.1 5 9.4 8.7L8.1 1.6C7.8.6 7 .3 6.3.3z" fill="#f9a51a"/></g></svg>